<svg xmlns="http://www.w3.org/2000/svg" xmlns:xlink="http://www.w3.org/1999/xlink" viewBox="0 0 1920 1200"><defs><style>.cls-1{isolation:isolate;}.cls-2{fill:#2d2642;}.cls-12,.cls-3,.cls-8{fill:none;}.cls-3{stroke:#4a4368;stroke-width:4px;}.cls-12,.cls-3{stroke-miterlimit:10;}.cls-4{opacity:0.25;fill:url(#radial-gradient);}.cls-10,.cls-11,.cls-12,.cls-13,.cls-14,.cls-15,.cls-16,.cls-17,.cls-18,.cls-4,.cls-5,.cls-6,.cls-7,.cls-9{mix-blend-mode:screen;}.cls-5{fill:url(#radial-gradient-2);}.cls-6{fill:url(#radial-gradient-3);}.cls-7{opacity:0.2;fill:url(#radial-gradient-4);}.cls-9{opacity:0.15;fill:url(#radial-gradient-5);}.cls-10,.cls-13{opacity:0.5;}.cls-10{fill:url(#radial-gradient-6);}.cls-11{fill:url(#radial-gradient-7);}.cls-12{stroke:#fff;stroke-width:2px;opacity:0.03;}.cls-13{fill:url(#radial-gradient-8);}.cls-14{fill:url(#radial-gradient-9);}.cls-15{fill:url(#radial-gradient-10);}.cls-16{fill:url(#radial-gradient-11);}.cls-17{fill:url(#radial-gradient-12);}.cls-18{fill:url(#radial-gradient-13);}</style><radialGradient id="radial-gradient" cx="477.75" cy="1112" r="56.04" gradientUnits="userSpaceOnUse"><stop offset="0.1"/><stop offset="0.15" stop-color="#191407"/><stop offset="0.21" stop-color="#2f260d"/><stop offset="0.27" stop-color="#403312"/><stop offset="0.36" stop-color="#4b3d16"/><stop offset="0.47" stop-color="#524217"/><stop offset="0.8" stop-color="#544418"/><stop offset="1"/></radialGradient><radialGradient id="radial-gradient-2" cx="1038.44" cy="1106.17" r="1.87" gradientUnits="userSpaceOnUse"><stop offset="0" stop-color="#cae095"/><stop offset="0.06" stop-color="#a8ba7c"/><stop offset="0.14" stop-color="#818f5f"/><stop offset="0.22" stop-color="#5e6845"/><stop offset="0.31" stop-color="#414830"/><stop offset="0.4" stop-color="#292e1e"/><stop offset="0.5" stop-color="#171911"/><stop offset="0.62" stop-color="#0a0b07"/><stop offset="0.76" stop-color="#020302"/><stop offset="1"/></radialGradient><radialGradient id="radial-gradient-3" cx="959" cy="1107" r="1.87" xlink:href="#radial-gradient-2"/><radialGradient id="radial-gradient-4" cx="939.75" cy="1107.2" r="14.01" gradientUnits="userSpaceOnUse"><stop offset="0.05"/><stop offset="0.09" stop-color="#030904"/><stop offset="0.3" stop-color="#133315"/><stop offset="0.48" stop-color="#1f5222"/><stop offset="0.64" stop-color="#256529"/><stop offset="0.75" stop-color="#286c2c"/><stop offset="0.79" stop-color="#4c6c19"/><stop offset="0.84" stop-color="#6e6b07"/><stop offset="0.86" stop-color="#7b6b00"/><stop offset="0.89" stop-color="#776800"/><stop offset="0.91" stop-color="#6d5e00"/><stop offset="0.94" stop-color="#5a4f00"/><stop offset="0.96" stop-color="#413800"/><stop offset="0.98" stop-color="#201c00"/><stop offset="1"/></radialGradient><radialGradient id="radial-gradient-5" cx="574" cy="1111" r="37.36" gradientUnits="userSpaceOnUse"><stop offset="0" stop-color="#230000"/><stop offset="0.73" stop-color="#93432a"/><stop offset="1" stop-color="#230000"/></radialGradient><radialGradient id="radial-gradient-6" cx="574" cy="1111" r="18.68" gradientUnits="userSpaceOnUse"><stop offset="0.15" stop-color="#fff"/><stop offset="0.21" stop-color="#e2d1d2"/><stop offset="0.29" stop-color="#bf9a9c"/><stop offset="0.36" stop-color="#a67276"/><stop offset="0.42" stop-color="#975a5e"/><stop offset="0.45" stop-color="#915155"/><stop offset="0.56" stop-color="#6c3638"/><stop offset="0.68" stop-color="#44191a"/><stop offset="0.79" stop-color="#2c0707"/><stop offset="0.85" stop-color="#230000"/><stop offset="0.86" stop-color="#270201"/><stop offset="0.86" stop-color="#340805"/><stop offset="0.87" stop-color="#48120b"/><stop offset="0.88" stop-color="#652114"/><stop offset="0.89" stop-color="#8b331f"/><stop offset="0.9" stop-color="#b8492d"/><stop offset="0.9" stop-color="#d65836"/><stop offset="0.9" stop-color="#c95232"/><stop offset="0.91" stop-color="#9d3c25"/><stop offset="0.93" stop-color="#782a1a"/><stop offset="0.94" stop-color="#591b10"/><stop offset="0.95" stop-color="#410f09"/><stop offset="0.97" stop-color="#300604"/><stop offset="0.98" stop-color="#260201"/><stop offset="1" stop-color="#230000"/></radialGradient><radialGradient id="radial-gradient-7" cx="574" cy="1111" r="15.57" gradientUnits="userSpaceOnUse"><stop offset="0.15" stop-color="#fff"/><stop offset="0.28" stop-color="#c2c2c2"/><stop offset="0.43" stop-color="#888"/><stop offset="0.56" stop-color="#575757"/><stop offset="0.69" stop-color="#313131"/><stop offset="0.81" stop-color="#161616"/><stop offset="0.92" stop-color="#060606"/><stop offset="1"/></radialGradient><radialGradient id="radial-gradient-8" cx="959" cy="1107" r="28.02" gradientUnits="userSpaceOnUse"><stop offset="0.64"/><stop offset="0.72" stop-color="#000200"/><stop offset="0.75" stop-color="#000902"/><stop offset="0.77" stop-color="#001405"/><stop offset="0.78" stop-color="#002509"/><stop offset="0.8" stop-color="#003b0e"/><stop offset="0.8" stop-color="#004510"/><stop offset="0.82" stop-color="#182809"/><stop offset="0.83" stop-color="#2b1204"/><stop offset="0.85" stop-color="#360501"/><stop offset="0.86" stop-color="#3a0000"/><stop offset="0.87" stop-color="#250000"/><stop offset="0.89" stop-color="#140000"/><stop offset="0.9" stop-color="#090000"/><stop offset="0.93" stop-color="#020000"/><stop offset="1"/></radialGradient><radialGradient id="radial-gradient-9" cx="569.46" cy="1111.05" r="3.5" gradientUnits="userSpaceOnUse"><stop offset="0.1"/><stop offset="0.25" stop-color="#100e03"/><stop offset="0.49" stop-color="#231e06"/><stop offset="0.74" stop-color="#2e2808"/><stop offset="1" stop-color="#322b09"/></radialGradient><radialGradient id="radial-gradient-10" cx="649.24" cy="1110.22" r="0.73" gradientUnits="userSpaceOnUse"><stop offset="0.1"/><stop offset="0.23" stop-color="#1d1e23"/><stop offset="0.37" stop-color="#393a45"/><stop offset="0.52" stop-color="#4f5060"/><stop offset="0.68" stop-color="#5f6073"/><stop offset="0.83" stop-color="#686a7e"/><stop offset="1" stop-color="#6b6d82"/></radialGradient><radialGradient id="radial-gradient-11" cx="492.57" cy="1111.85" r="7.22" gradientUnits="userSpaceOnUse"><stop offset="0.1" stop-color="#ac6b93"/><stop offset="0.19" stop-color="#895575"/><stop offset="0.32" stop-color="#5f3b51"/><stop offset="0.45" stop-color="#3d2634"/><stop offset="0.58" stop-color="#22151d"/><stop offset="0.72" stop-color="#0f090d"/><stop offset="0.85" stop-color="#040203"/><stop offset="1"/></radialGradient><radialGradient id="radial-gradient-12" cx="599.87" cy="1110.73" r="7.82" gradientUnits="userSpaceOnUse"><stop offset="0.1"/><stop offset="0.22" stop-color="#091a20"/><stop offset="0.37" stop-color="#133642"/><stop offset="0.52" stop-color="#1a4c5d"/><stop offset="0.67" stop-color="#205c70"/><stop offset="0.83" stop-color="#23657b"/><stop offset="1" stop-color="#24687f"/></radialGradient><radialGradient id="radial-gradient-13" cx="552.76" cy="1111.22" r="7.75" gradientUnits="userSpaceOnUse"><stop offset="0.1" stop-color="#3f0736"/><stop offset="0.12" stop-color="#3d0734"/><stop offset="0.33" stop-color="#22041d"/><stop offset="0.54" stop-color="#0f020d"/><stop offset="0.76" stop-color="#040003"/><stop offset="1"/></radialGradient></defs><g class="cls-1"><g id="Layer_1" data-name="Layer 1"><path class="cls-2" d="M1920,1200H0V0H1920Z"/><path class="cls-3" d="M11,1143c11,21.71,39,48.4,68,40,26.42-7.66,43.25-41.55,36-64-10.3-31.9-63.37-22.66-78-55-15.64-34.57,20.81-98.63,54-100,37.79-1.56,91.12,77.34,97,151,1.67,21-.87,36.9,11,48,12.86,12,36.29,12.46,108-11,103.61-33.89,117-55.18,154-49,50,8.35,46.65,50.79,93,66,91,29.85,157.17-116.12,268-102,86.29,11,94.94,105.7,177,105,81-.69,112.36-93.23,183-78,45,9.71,84.5,58.61,77,76-4.38,10.17-27,14.64-37,6-8.76-7.57-8.47-25.78-1-37,18.06-27.13,86.26-25.76,123,7,11.27,10,7.8,12.55,16,19,41.4,32.57,113.35-44.21,210-35,35.42,3.37,26.39,13.74,89,32,79.79,23.27,194.88,35.7,213-2,13.64-28.38-35.77-68.25-20-89,12.09-15.91,55.38-11.22,61,4,8.57,23.21-65.81,83.51-88,70-25.52-15.53,50.55-108.78,27-230-20.92-107.68-96.76-115.46-97-197-.32-109.7,136.82-147.47,123-239-10.72-71-98.62-83.5-105-157-4.62-53.32,28.22-109.91,71-131,17.74-8.75,49.2-17.3,61-4,10.55,11.9,5.93,41.9-9,54-39.09,31.69-129.83-74.89-263-107-117.24-28.27-179.24,22.42-318,51-190,39.15-184.69-33.08-510-41-371.12-9-506.29,81.84-680,19-15.4-5.57-51.33-19.67-77-3C3,189.24,33.75,284.46,53,471c18.8,182.13,28.19,273.19,7,355-20,77.33-21.17,159.41-47,235C7.83,1076.14-4.88,1111.56,11,1143Z"/><ellipse class="cls-3" cx="204" cy="1119.5" rx="47" ry="21.5"/><ellipse class="cls-3" cx="170" cy="1077.5" rx="57" ry="41.5"/><ellipse class="cls-3" cx="115" cy="1011.5" rx="34" ry="65.5"/><ellipse class="cls-3" cx="65" cy="939" rx="40" ry="53"/><ellipse class="cls-3" cx="1829" cy="1115.5" rx="23" ry="44.5"/><ellipse class="cls-3" cx="1804" cy="1069" rx="23" ry="33"/><ellipse class="cls-3" cx="1830" cy="1018.5" rx="26" ry="42.5"/><ellipse class="cls-3" cx="1805.5" cy="970.5" rx="24.5" ry="40.5"/><ellipse class="cls-3" cx="1837" cy="913" rx="31" ry="39"/><ellipse class="cls-3" cx="1801.5" cy="870.5" rx="35.5" ry="28.5"/><ellipse class="cls-3" cx="1835" cy="818" rx="41" ry="52"/><ellipse class="cls-3" cx="1788" cy="767" rx="31" ry="27"/><polygon class="cls-3" points="35 150 25.52 145.79 16.68 151.22 17.75 140.9 9.86 134.17 20 132 23.96 122.41 29.16 131.39 39.5 132.2 32.57 139.91 35 150"/><polygon class="cls-3" points="1225 170 1213.72 168.16 1205.82 176.41 1204.08 165.11 1193.8 160.14 1204 155 1205.55 143.68 1213.59 151.8 1224.84 149.78 1219.6 159.93 1225 170"/><circle class="cls-4" cx="477.75" cy="1112" r="56.04"/><circle class="cls-5" cx="1038.44" cy="1106.17" r="1.87"/><circle class="cls-6" cx="959" cy="1107" r="1.87"/><circle class="cls-7" cx="939.75" cy="1107.2" r="14.01"/><line class="cls-8" x1="574" y1="1111" x2="959" y2="1107"/><circle class="cls-9" cx="574" cy="1111" r="37.36"/><circle class="cls-10" cx="574" cy="1111" r="18.68"/><circle class="cls-11" cx="574" cy="1111" r="15.57"/><polyline class="cls-12" points="574 1111 578.03 1132.94 574 1111 569.97 1089.06 574 1111 552.06 1115.03 574 1111 595.94 1106.97 574 1111 584.71 1168.86 574 1111 563.29 1053.14 574 1111 516.14 1121.71 574 1111 631.86 1100.29 574 1111 598.59 1184.89 574 1111 549.41 1037.11 574 1111 500.11 1135.59 574 1111 647.89 1086.41 574 1111 598.36 1159.57 574 1111 549.64 1062.43 574 1111 525.43 1135.36 574 1111 622.57 1086.64 574 1111 551.3 1178.65 574 1111 596.7 1043.35 574 1111 506.35 1088.3 574 1111 641.65 1133.7 574 1111 581.2 1129.62 574 1111 566.8 1092.38 574 1111 555.38 1118.2 574 1111 592.62 1103.8 574 1111 591.65 1134.88 574 1111 556.35 1087.12 574 1111 550.12 1128.65 574 1111 597.88 1093.35 574 1111 617.28 1176.67 574 1111 530.72 1045.33 574 1111 508.33 1154.28 574 1111 639.67 1067.72 574 1111 563.75 1156.56 574 1111 584.25 1065.44 574 1111 528.44 1100.75 574 1111 619.56 1121.25 574 1111 547.17 1171.86 574 1111 600.83 1050.14 574 1111 513.14 1084.17 574 1111 634.86 1137.83 574 1111 580.95 1139.9 574 1111 567.05 1082.1 574 1111 545.1 1117.95 574 1111 602.9 1104.05 574 1111 576.11 1144.02 574 1111 571.89 1077.98 574 1111 540.98 1113.11 574 1111 607.02 1108.89 574 1111 567.11 1139.73 574 1111 580.89 1082.27 574 1111 545.27 1104.11 574 1111 602.73 1117.89 574 1111 572.96 1137.18 574 1111 575.04 1084.82 574 1111 547.82 1109.96 574 1111 600.18 1112.04 574 1111 627.65 1151.76 574 1111 520.35 1070.24 574 1111 533.24 1164.65 574 1111 614.76 1057.35"/><circle class="cls-13" cx="959" cy="1107" r="28.02"/><circle class="cls-14" cx="569.46" cy="1111.05" r="3.5"/><circle class="cls-15" cx="649.24" cy="1110.22" r="0.73"/><circle class="cls-16" cx="492.57" cy="1111.85" r="7.22"/><circle class="cls-17" cx="599.87" cy="1110.73" r="7.82"/><circle class="cls-18" cx="552.76" cy="1111.22" r="7.75"/></g></g></svg>